<?xml version="1.0" encoding="UTF-8"?>
<svg width="169px" height="196px" viewBox="0 0 169 196" version="1.1" xmlns="http://www.w3.org/2000/svg" xmlns:xlink="http://www.w3.org/1999/xlink">
    <title>Group 2</title>
    <g id="Page-1" stroke="none" stroke-width="1" fill="none" fill-rule="evenodd">
        <g id="Group-2" transform="translate(-0.000000, 0.000000)">
            <text id="Trisicell" font-family="Avenir-Heavy, Avenir" font-size="47.38" font-weight="600">
                <tspan x="2.75593" y="178.1252" fill="#4AB969">Tri</tspan>
                <tspan x="60.70167" y="178.1252" fill="#DB413F">si</tspan>
                <tspan x="94.05719" y="178.1252" fill="#0091D0">cell</tspan>
            </text>
            <g id="Group">
                <path d="M115.126417,77.8887842 C109.430017,62.2771842 113.315617,46.5187842 123.804817,42.6911842 C134.294417,38.8639842 147.415617,48.4167842 153.111617,64.0283842 C158.808017,79.6399842 154.922817,95.3983842 144.433217,99.2259842 C133.944017,103.053184 120.822817,93.5003842 115.126417,77.8887842 Z M111.712017,79.1347842 C118.752417,98.4295842 134.969617,110.236784 147.934017,105.506384 C160.898417,100.775984 165.700817,81.2991842 158.660417,62.0039842 C151.620017,42.7087842 135.402817,30.9015842 122.438017,35.6323842 C109.473617,40.3627842 104.671617,59.8391842 111.712017,79.1347842 L111.712017,79.1347842 Z" id="Fill-1" fill="#0091D0"></path>
                <path d="M41.2244168,93.6523842 C37.1400168,82.4579842 39.9260168,71.1587842 47.4472168,68.4143842 C54.9688168,65.6699842 64.3772168,72.5195842 68.4616168,83.7139842 C72.5460168,94.9079842 69.7600168,106.207584 62.2388168,108.951984 C54.7172168,111.696384 45.3088168,104.846384 41.2244168,93.6523842 Z M38.7760168,94.5455842 C43.8244168,108.381184 55.4528168,116.847184 64.7488168,113.455184 C74.0448168,110.063184 77.4884168,96.0975842 72.4400168,82.2623842 C67.3916168,68.4267842 55.7632168,59.9607842 46.4672168,63.3523842 C37.1712168,66.7443842 33.7280168,80.7099842 38.7760168,94.5455842 L38.7760168,94.5455842 Z" id="Fill-2" fill="#DB413F"></path>
                <path d="M54.9180168,88.4783842 L54.9180168,88.4783842 C54.1040168,87.6923842 54.1340168,86.3795842 54.9848168,85.6331842 C57.7016168,83.2503842 64.0168168,78.3295842 73.9816168,74.0891842 C81.8372168,70.7463842 90.3544168,68.5207842 99.2964168,67.4743842 C109.854817,66.2387842 121.035217,66.6531842 132.558017,68.7047842 C133.618817,68.8939842 134.320417,69.9159842 134.116017,70.9739842 C133.916017,72.0103842 132.919617,72.6919842 131.880417,72.5071842 C106.218017,67.9407842 87.2088168,72.6923842 75.6868168,77.5607842 C66.1300168,81.5979842 60.0312168,86.3655842 57.5296168,88.5475842 C56.7740168,89.2067842 55.6392168,89.1747842 54.9180168,88.4783842" id="Fill-3" fill="#C1C1C1"></path>
                <path d="M27.7848168,105.633184 C30.5016168,103.250384 58.7512513,86.4792924 78.8390098,79.3158033 C96.0200168,73.1888899 117.435217,67.4531842 128.958017,69.5047842 C130.018817,69.6939842 130.720417,70.7159842 130.516017,71.7739842 C130.316017,72.8103842 129.319617,73.4919842 128.280417,73.3071842 C113.889193,70.7463916 94.3392291,76.6674827 77.8145005,83.4941598 C64.8723677,88.8407991 53.7859111,94.7429239 48.4868168,97.5607842 C36.4217516,103.976535 32.8312168,106.365584 30.3296168,108.547584 C29.5740168,109.206784 28.4392168,109.174784 27.7180168,108.478384 C26.9040168,107.692384 26.9340168,106.379584 27.7848168,105.633184 Z" id="Fill-3" fill="#C1C1C1"></path>
                <path d="M138.168017,70.5963842 C139.514817,75.5887842 138.332017,80.2491842 135.526417,81.0063842 C132.720417,81.7631842 129.354017,78.3299842 128.007217,73.3375842 C126.660817,68.3455842 127.843217,63.6847842 130.649217,62.9279842 C133.454817,62.1707842 136.821217,65.6043842 138.168017,70.5963842" id="Fill-7" fill="#0091D0"></path>
                <path d="M59.6516168,87.4235842 C61.2220168,91.3971842 60.6852168,95.3339842 58.4520168,96.2167842 C56.2188168,97.0991842 53.1352168,94.5935842 51.5644168,90.6203842 C49.9940168,86.6467842 50.5312168,82.7099842 52.7644168,81.8271842 C54.9976168,80.9447842 58.0812168,83.4503842 59.6516168,87.4235842" id="Fill-8" fill="#DB413F"></path>
                <path d="M30.0516168,107.023584 C31.6220168,110.997184 31.0852168,114.933984 28.8520168,115.816784 C26.6188168,116.699184 23.5352168,114.193584 21.9644168,110.220384 C20.3940168,106.246784 20.9312168,102.309984 23.1644168,101.427184 C25.3976168,100.544784 28.4812168,103.050384 30.0516168,107.023584" id="Fill-8" fill="#4AB969"></path>
                <path d="M138.265617,100.623584 C136.766417,101.170784 135.213217,101.443184 133.635617,101.465184 C135.866017,101.729184 138.072817,101.517184 140.172017,100.751184 C150.478817,96.9903842 154.296817,81.5059842 148.699617,66.1659842 C145.208017,56.5959842 138.876417,49.3439842 132.104417,46.1547842 C138.205217,49.8039842 143.745217,56.6595842 146.944017,65.4263842 C152.640817,81.0379842 148.754817,96.7963842 138.265617,100.623584" id="Fill-9" fill="#0091D0"></path>
                <path d="M108.020017,81.0091842 C101.102417,62.0495842 105.820817,42.9119842 118.560017,38.2635842 C123.848817,36.3339842 129.688017,37.2071842 135.204817,40.2431842 C129.022817,36.2067842 122.295217,34.8315842 116.270417,37.0299842 C103.306017,41.7603842 98.5036168,61.2371842 105.544417,80.5323842 C111.704017,97.4135842 124.887617,108.563184 136.772417,107.920784 C125.626417,107.332384 113.740417,96.6867842 108.020017,81.0091842" id="Fill-10" fill="#0091D0"></path>
                <path d="M59.7164168,111.950384 C58.5504168,112.375584 57.3428168,112.587584 56.1164168,112.604384 C57.8504168,112.809584 59.5664168,112.644784 61.1984168,112.049184 C69.2120168,109.125184 72.1804168,97.0863842 67.8284168,85.1599842 C65.1136168,77.7191842 60.1908168,72.0811842 54.9260168,69.6015842 C59.6692168,72.4387842 63.9768168,77.7687842 66.4636168,84.5847842 C70.8924168,96.7223842 67.8716168,108.974384 59.7164168,111.950384" id="Fill-11" fill="#DB413F"></path>
                <path d="M43.4452168,63.1419842 C47.7744168,61.5623842 52.5544168,62.2775842 57.0700168,64.7623842 C52.0096168,61.4583842 46.5032168,60.3327842 41.5712168,62.1323842 C30.9592168,66.0043842 30.6874553,78.4611462 36.4506553,94.2555462 C30.7878553,78.7359462 33.0176168,66.9467842 43.4452168,63.1419842 Z" id="Fill-12" fill="#DB413F"></path>
                <path d="M12.4244168,114.452384 C8.34001683,103.257984 11.1260168,91.9587842 18.6472168,89.2143842 C26.1688168,86.4699842 35.5772168,93.3195842 39.6616168,104.513984 C43.7460168,115.707984 40.9600168,127.007584 33.4388168,129.751984 C25.9172168,132.496384 16.5088168,125.646384 12.4244168,114.452384 Z M9.97601683,115.345584 C15.0244168,129.181184 26.6528168,137.647184 35.9488168,134.255184 C45.2448168,130.863184 48.6884168,116.897584 43.6400168,103.062384 C38.5916168,89.2267842 26.9632168,80.7607842 17.6672168,84.1523842 C8.37121683,87.5443842 4.92801683,101.509984 9.97601683,115.345584 L9.97601683,115.345584 Z" id="Fill-2" fill="#4AB969"></path>
                <path d="M6.01761683,118.931984 C0.35481683,103.412384 4.21761683,87.7467842 14.6452168,83.9419842 C18.9744168,82.3623842 23.7544168,83.0775842 28.2700168,85.5623842 C23.2096168,82.2583842 17.7032168,81.1327842 12.7712168,82.9323842 C2.15921683,86.8043842 -1.77198317,102.747184 3.99121683,118.541584 C9.03321683,132.359984 19.8248168,141.486384 29.5532168,140.960784 C20.4292168,140.479184 10.7000168,131.764784 6.01761683,118.931984" id="Fill-12" fill="#4AB969"></path>
                <path d="M63.8352168,36.1479842 L63.8352168,36.1479842 C63.0036168,35.2087842 63.0912168,33.7731842 64.0304168,32.9415842 L76.9484168,21.5059842 C77.9140168,20.6511842 79.2784168,20.4111842 80.4776168,20.8847842 L97.0152168,27.4171842 C99.0548168,28.2227842 101.335617,28.1575842 103.325617,27.2367842 L106.558817,25.7407842 C109.236017,24.5019842 111.016417,21.8927842 111.193617,18.9483842 L111.936017,6.62198423 C112.031217,5.04038423 113.198417,3.73038423 114.758817,3.45438423 L134.092017,0.035184227 C135.327217,-0.183615773 136.506017,0.640784227 136.724417,1.87638423 C136.942817,3.11158423 136.118417,4.29038423 134.883217,4.50878423 L119.078417,7.30438423 C117.518417,7.57998423 116.350817,8.88998423 116.255617,10.4715842 L115.565617,21.9311842 C115.388417,24.8759842 113.608017,27.4851842 110.930817,28.7239842 L103.467217,32.1775842 C101.476817,33.0983842 99.1960168,33.1635842 97.1564168,32.3579842 L81.4016168,26.1347842 C80.2020168,25.6607842 78.8380168,25.9007842 77.8724168,26.7559842 L67.0420168,36.3435842 C66.1024168,37.1751842 64.6668168,37.0875842 63.8352168,36.1479842" id="Fill-4" fill="#C1C1C1"></path>
                <path d="M18.8824168,40.3751842 L4.42521683,44.5871842 C1.19121683,45.5295842 -0.74798317,48.9391842 0.27361683,52.1487842 C0.50641683,52.8815842 0.84561683,53.4115842 1.33481683,53.5223842 C3.29241683,53.9643842 22.7648168,46.3583842 23.1676168,44.2007842 C23.1712168,44.1791842 23.1752168,44.1575842 23.1788168,44.1359842 C23.5932168,41.6963842 21.2580168,39.6827842 18.8824168,40.3751842" id="Fill-5" fill="#C1C1C1"></path>
                <path d="M32.1176168,81.5903842 C32.6932168,83.1315842 31.4180168,84.7303842 29.7872168,84.5115842 C29.0392168,84.4111842 28.3964168,83.9303842 28.0884168,83.2411842 L9.94761683,50.0191842 C9.37321683,48.7327842 10.1524168,47.2475842 11.5372168,46.9891842 L12.7832168,46.7571842 C13.8236168,46.5631842 14.8528168,47.1447842 15.2228168,48.1359842 L32.1176168,81.5903842 Z" id="Fill-6" fill="#C1C1C1"></path>
                <path d="M128.117617,59.5903842 C128.693217,61.1315842 127.418017,62.7303842 125.787217,62.5115842 C125.039217,62.4111842 124.396417,61.9303842 124.088417,61.2411842 L105.947617,28.0191842 C105.373217,26.7327842 106.152417,25.2475842 107.537217,24.9891842 L108.783217,24.7571842 C109.823617,24.5631842 110.852817,25.1447842 111.222817,26.1359842 L128.117617,59.5903842 Z" id="Fill-6" fill="#C1C1C1"></path>
            </g>
        </g>
    </g>
</svg>